<svg width="490" height="490" viewBox="0 0 490 490" fill="none" xmlns="http://www.w3.org/2000/svg">
<g clip-path="url(#clip0_103_150)">
<path d="M218 -2.69115e-05C282.955 -0.910808 282.955 -0.910808 308.016 7.07419C312.112 8.34483 316.242 9.48215 320.375 10.625C321.161 10.8432 321.947 11.0615 322.756 11.2864C326.163 12.2294 329.568 13.1533 333 14C333 14.66 333 15.32 333 16C333.879 16.1191 334.758 16.2383 335.664 16.3611C338.883 16.9775 341.405 17.8725 344.379 19.2226C345.377 19.6753 346.375 20.1279 347.404 20.5942C348.446 21.0787 349.488 21.5633 350.562 22.0625C351.631 22.5547 352.7 23.047 353.802 23.5542C360.747 26.8052 367.314 30.3113 373.707 34.539C376.015 36.1399 376.015 36.1399 379 37C379 37.66 379 38.32 379 39C379.701 39.2475 380.402 39.495 381.125 39.75C384.393 41.1707 387.053 42.9931 390 45C390.557 45.3751 391.113 45.7502 391.687 46.1367C393.4 47.2927 395.107 48.4579 396.812 49.625C397.689 50.2167 397.689 50.2167 398.584 50.8203C402.886 53.7711 402.886 53.7711 404 56C404.99 56.33 405.98 56.66 407 57C407.835 58.0518 407.835 58.0518 408.688 59.125C410.561 61.4548 412.187 63.0992 414.438 65C424.273 73.441 433.032 82.7907 441 93C442.112 94.3303 442.112 94.3303 443.246 95.6875C445 98 445 98 445 100C445.66 100 446.32 100 447 100C448.11 101.43 448.11 101.43 449.32 103.445C449.993 104.554 449.993 104.554 450.68 105.686C451.157 106.491 451.634 107.296 452.125 108.125C452.62 108.952 453.115 109.78 453.625 110.633C454.627 112.313 455.627 113.996 456.622 115.68C457.769 117.61 458.935 119.525 460.117 121.434C464.683 129.021 468.344 136.914 471.938 145C472.423 146.087 472.908 147.175 473.408 148.295C473.86 149.332 474.312 150.369 474.777 151.437C475.182 152.364 475.587 153.291 476.004 154.246C477 157 477 157 477.514 160.285C477.674 161.181 477.835 162.077 478 163C478.66 163.33 479.32 163.66 480 164C480.781 166.477 480.781 166.477 481.5 169.625C482.252 172.872 483.022 176.076 483.965 179.273C485.226 183.813 486.156 188.379 487.062 193C487.236 193.864 487.409 194.727 487.588 195.617C488.981 202.639 490.114 209.491 490.177 216.672C490.19 217.958 490.203 219.245 490.216 220.571C490.224 221.964 490.232 223.357 490.238 224.75C490.244 225.823 490.244 225.823 490.251 226.917C490.271 230.717 490.286 234.517 490.295 238.317C490.304 241.411 490.325 244.503 490.357 247.597C490.535 265.135 490.266 282.001 486.362 299.217C485.934 301.023 485.934 301.023 486 303C485.34 303 484.68 303 484 303C483.898 304.127 483.796 305.253 483.691 306.414C483.073 311.313 481.608 315.744 479.938 320.375C479.626 321.247 479.314 322.119 478.993 323.018C469.794 348.297 457.424 373.374 440 394C439.1 395.074 438.2 396.148 437.301 397.223C418.089 420.094 397.397 438.263 372 454C371.23 454.482 370.46 454.965 369.666 455.462C334.454 477.133 291.779 487.253 250.688 487.187C249.985 487.187 249.283 487.186 248.56 487.186C221.201 487.122 195.104 483.25 169 475C168.265 474.771 167.53 474.542 166.772 474.306C152.187 469.693 138.639 462.851 125 456C124.34 455.67 123.68 455.34 123 455C122.216 454.361 121.433 453.721 120.625 453.062C118.424 451.333 116.53 450.134 114 449C111.354 447.677 109.302 445.861 107 444C104.986 442.449 102.965 440.908 100.938 439.375C99.9153 438.599 98.893 437.823 97.8398 437.023C95.1981 435.019 95.1981 435.019 92.8359 433.961C90.5263 432.752 89.3262 431.268 87.6875 429.25C84.0627 424.972 80.1434 420.38 74.918 418.086C72.4953 416.714 72.1473 415.502 71 413C69.7548 411.421 68.459 409.88 67.125 408.375C66.1079 407.211 66.1079 407.211 65.0703 406.023C63.1486 403.922 63.1486 403.922 60.8047 402.977C60.2091 402.654 59.6136 402.332 59 402C58.6232 400.678 58.2956 399.342 58 398C56.3878 395.698 56.3878 395.698 54.375 393.375C43 379.536 43 379.536 43 376C42.01 375.67 41.02 375.34 40 375C39.2682 373.361 38.6167 371.686 38 370C36.7415 367.597 35.4605 365.233 34.125 362.875C33.786 362.255 33.447 361.635 33.0977 360.996C31.1474 357.548 29.3979 355.087 26 353C26.66 352.67 27.32 352.34 28 352C27.0731 349.87 26.1332 347.746 25.1875 345.625C24.6654 344.442 24.1434 343.258 23.6055 342.039C22.1959 338.786 22.1959 338.786 19 337C19.66 337 20.32 337 21 337C20.7681 336.37 20.5363 335.74 20.2974 335.092C19.2373 332.208 18.1811 329.323 17.125 326.437C16.7602 325.447 16.3954 324.456 16.0195 323.436C12.9891 315.143 12.9891 315.143 11.8672 310.848C11.581 309.908 11.2948 308.968 11 308C10.34 307.67 9.68 307.34 9 307C9.33 306.01 9.66 305.02 10 304C9.78886 301.907 9.78886 301.907 9.25781 299.648C9.07863 298.796 8.89945 297.944 8.71484 297.066C8.5202 296.178 8.32555 295.29 8.125 294.375C6.72922 287.916 5.62753 281.582 5 275C4.34 275 3.68 275 3 275C3 274.34 3 273.68 3 273C3.66 273 4.32 273 5 273C4.53594 271.886 4.53594 271.886 4.0625 270.75C3.19051 268.493 2.52333 266.355 2 264C2.66 264 3.32 264 4 264C3.83629 263.203 3.67258 262.407 3.50391 261.586C2.89208 257.232 2.892 253.014 2.9375 248.625C2.94201 247.794 2.94652 246.962 2.95117 246.105C2.96287 244.07 2.9808 242.035 3 240C2.34 240 1.68 240 1 240C1 239.01 1 238.02 1 237C1.66 237 2.32 237 3 237C3.33 233.04 3.66 229.08 4 225C3.34 224.67 2.68 224.34 2 224C2.66 224 3.32 224 4 224C4 223.01 4 222.02 4 221C3.34 220.67 2.68 220.34 2 220C2.66 220 3.32 220 4 220C4.08919 219.098 4.08919 219.098 4.18018 218.178C8.76521 173.493 25.0438 119.583 58.6252 87.4445C60.2582 85.9335 60.2582 85.9335 61 83C62.6016 81.457 62.6016 81.457 64.625 79.8125C67.5385 77.3508 70.1012 74.8509 72.5625 71.9375C75.2863 68.7213 78.1582 65.9855 81.4219 63.3242C83.0243 62.0228 83.0243 62.0228 84.4531 60.5195C86.7821 58.2317 89.4268 56.4169 92.0625 54.5C94.0024 53.0639 94.0024 53.0639 95.5586 51.4375C97 50 97 50 100.062 48C103.168 46.1546 103.168 46.1546 105 43C106.926 41.8945 106.926 41.8945 109.312 40.8125C113.448 38.8336 117.308 36.6302 121.188 34.1875C126.048 31.1548 130.959 28.2856 136 25.5625C136.623 25.2205 137.246 24.8785 137.887 24.5261C141.235 22.7411 144.23 21.5069 148 21C148 20.34 148 19.68 148 19C178.85 8.51391 178.85 8.51391 191.054 5.49118C192.775 5.05665 194.471 4.52351 196.16 3.97654C200.635 2.83839 204.841 2.55275 209.438 2.37497C210.264 2.3363 211.091 2.29763 211.943 2.25779C213.962 2.16444 215.981 2.08116 218 1.99997C218 1.33997 218 0.679973 218 -2.69115e-05ZM181.391 39.2031C179 40 179 40 177.176 40.4135C174.589 41.1109 172.246 42.1078 169.789 43.1797C168.791 43.6141 167.794 44.0485 166.766 44.4961C165.211 45.1786 165.211 45.1786 163.625 45.875C162.596 46.3223 161.568 46.7696 160.508 47.2304C155.607 49.3713 150.752 51.5428 146 54C145.37 54.3016 144.739 54.6033 144.09 54.914C140.837 56.6042 137.707 58.4936 134.562 60.375C133.579 60.9551 133.579 60.9551 132.576 61.5468C128.809 63.7989 125.393 66.2006 122 69C120.317 70.1938 118.629 71.381 116.938 72.5625C111.473 76.5039 106.618 80.8699 101.727 85.4843C99.2321 87.7858 96.6694 89.9069 94 92C92.2272 93.52 92.2272 93.52 91 95C91 95.66 91 96.32 91 97C90.34 97 89.68 97 89 97C68.6502 116.864 52.2256 145.107 43.6426 172.041C43.0425 173.87 42.3752 175.677 41.7031 177.48C37.266 189.6 35.083 202.293 33 215C32.8233 216.069 32.8233 216.069 32.6431 217.159C31.6276 224.552 31.85 232.063 31.8696 239.51C31.875 241.928 31.8697 244.346 31.8633 246.764C31.8595 254.564 31.9367 262.257 33 270C33.1444 271.149 33.2887 272.297 33.4375 273.48C37.2617 297.408 44.2069 320.76 56 342C56.7517 343.39 57.503 344.781 58.2539 346.172C62.4068 353.783 66.8131 361.039 72 368C72.6987 368.964 73.3973 369.928 74.1172 370.922C82.0519 381.739 91.0058 392.014 101 401C101.66 401 102.32 401 103 401C103.218 401.562 103.436 402.124 103.66 402.703C115.305 422.666 150.79 438.085 172 445C173.298 445.453 174.594 445.909 175.891 446.367C186.462 450.053 196.981 453.003 208 455C208.819 455.151 209.639 455.302 210.483 455.457C223.38 457.731 236.125 458.267 249.188 458.25C249.945 458.249 250.702 458.249 251.481 458.248C260.335 458.441 260.335 458.441 269 457C270.956 456.804 272.915 456.64 274.875 456.5C278.966 456.185 282.966 455.784 287 455C287 454.34 287 453.68 287 453C287.724 453.185 288.448 453.37 289.195 453.561C292.182 454.029 293.979 453.781 296.887 453.031C297.817 452.793 298.748 452.555 299.706 452.309C301.182 451.909 301.182 451.909 302.688 451.5C303.7 451.231 304.713 450.962 305.757 450.685C315.725 447.952 325.732 444.634 335 440C335 439.34 335 438.68 335 438C335.99 438.33 336.98 438.66 338 439C339.947 438.326 339.947 438.326 341.941 437.164C342.69 436.759 343.438 436.355 344.209 435.937C344.986 435.504 345.762 435.071 346.562 434.625C347.343 434.2 348.124 433.774 348.928 433.336C350.374 432.547 351.819 431.754 353.26 430.956C354.493 430.278 355.742 429.629 357 429C357 428.34 357 427.68 357 427C357.98 426.921 357.98 426.921 358.98 426.84C363.359 425.622 366.623 423.158 370.312 420.562C371.053 420.059 371.794 419.556 372.557 419.037C375.358 417.121 375.358 417.121 378 415C378 414.34 378 413.68 378 413C378.66 413 379.32 413 380 413C380 412.34 380 411.68 380 411C380.585 410.897 381.17 410.794 381.773 410.687C384.371 409.885 385.629 408.834 387.625 407C388.315 406.372 389.004 405.744 389.715 405.098C390.469 404.405 391.223 403.713 392 403C392.847 402.256 393.694 401.512 394.566 400.746C399.097 396.756 403.427 392.884 407 388C407 387.34 407 386.68 407 386C407.66 386 408.32 386 409 386C409 385.34 409 384.68 409 384C409.566 383.785 410.132 383.569 410.715 383.348C435.613 368.664 450.75 320.538 457.684 294.543C467.347 255.712 464.76 217.256 454 179C453.01 179 452.02 179 451 179C451.206 178.299 451.412 177.597 451.625 176.875C452.079 173.398 451.275 171.226 450 168C449.01 168 448.02 168 447 168C447.226 167.315 447.451 166.631 447.684 165.926C448.114 161.946 446.824 159.747 445.062 156.187C444.497 155.026 443.931 153.865 443.348 152.668C442.903 151.788 442.458 150.907 442 150C441.34 150 440.68 150 440 150C440.33 149.34 440.66 148.68 441 148C440.006 145.747 440.006 145.747 438.562 143.375C437.853 142.149 437.853 142.149 437.129 140.898C436.756 140.272 436.384 139.645 436 139C435.01 139 434.02 139 433 139C433.202 138.408 433.405 137.817 433.613 137.207C434.169 134.038 432.667 132.385 430.938 129.822C430.484 129.18 430.03 128.537 429.562 127.875C428.876 126.876 428.876 126.876 428.175 125.857C424.361 120.371 420.311 115.106 416 110C415.478 109.379 414.956 108.757 414.418 108.117C412.958 106.4 411.48 104.7 410 103C409.434 102.33 408.868 101.659 408.285 100.969C404.782 96.8603 401.164 93.4551 397 90C396.086 88.9319 395.191 87.8472 394.312 86.75C389.827 81.3345 383.735 75.245 377 73C376.43 72.4238 375.86 71.8475 375.273 71.2539C360.533 56.6405 334.996 44.9602 315 40C313.617 39.5848 312.237 39.1611 310.859 38.7304C301.134 35.7674 291.475 33.3437 281.438 31.6875C280.476 31.5285 279.515 31.3696 278.524 31.2058C246.193 26.1516 212.462 28.8461 181.391 39.2031Z" fill="#090909"/>
<path d="M347 101C347 101.66 347 102.32 347 103C347.683 103.213 348.366 103.425 349.07 103.644C352.912 105.422 355.719 107.901 358.875 110.687C359.806 111.498 359.806 111.498 360.756 112.324C365.011 116.055 369.094 119.904 373 124C374.207 125.176 374.207 125.176 375.438 126.375C386.571 137.78 394.9 150.236 402.045 164.453C403.742 167.803 405.347 170.38 408 173C408.59 174.875 408.59 174.875 408.938 177C409.858 181.789 411.445 186.172 413.195 190.715C414 193 414 193 414 195C414.66 195.33 415.32 195.66 416 196C416.344 197.82 416.344 197.82 416.5 200.125C416.763 203.112 417.154 205.529 418 208.437C419.267 212.951 419.619 217.341 420 222C420.093 222.902 420.186 223.805 420.281 224.734C420.903 230.845 421.12 236.859 421 243C421.66 243.33 422.32 243.66 423 244C422.34 244 421.68 244 421 244C421.035 244.611 421.07 245.222 421.105 245.851C421.597 262.469 419.527 282.945 412 298C412.66 298.33 413.32 298.66 414 299C413.01 299 412.02 299 411 299C411 300.98 411 302.96 411 305C410.34 305 409.68 305 409 305C408.67 306.134 408.34 307.269 408 308.437C404.291 319.529 399.048 330.651 392 340C391.272 340.991 390.543 341.982 389.793 343.004C371.94 366.979 346.206 393.265 317 403C315.488 403.611 315.488 403.611 313.945 404.234C287.633 414.779 260.984 416.351 233 417C233 416.34 233 415.68 233 415C231.761 415.044 230.522 415.088 229.246 415.133C223.366 415.126 217.806 414.058 212.063 412.875C210.409 412.535 210.409 412.535 208.722 412.188C189.045 407.996 169.601 400.924 153.01 389.332C151.064 388.042 149.091 387.031 147 386C145.759 384.997 144.552 383.952 143.375 382.875C140.356 380.164 137.266 377.616 134.063 375.125C125.111 368.013 116.756 359.604 110.313 350.125C108.33 346.953 108.33 346.953 105.75 345.875C105.173 345.586 104.595 345.297 104 345C103.631 343.341 103.304 341.672 103 340C100.48 335.348 100.48 335.348 96 333C95.8969 332.113 95.7938 331.226 95.6875 330.312C94.9853 326.929 93.8404 324.88 92 322C92 321.34 92 320.68 92 320C91.01 320 90.02 320 89 320C86.8884 310.59 86.8884 310.59 86 306C85.01 305.67 84.02 305.34 83 305C83.66 305 84.32 305 85 305C84.7577 304.475 84.5154 303.951 84.2657 303.41C79.5838 292.588 74.586 277.851 77 266C79.1314 261.854 81.7821 259.635 85.875 257.5C91.5285 256.595 95.3647 257.013 100.313 260C105.376 264.775 106.096 272.244 107.481 278.762C109.127 285.856 111.978 292.517 114.816 299.203C115.598 301.049 116.336 302.915 117.027 304.797C117.792 307.161 117.792 307.161 120 308C120.277 308.862 120.554 309.725 120.84 310.613C122.214 314.625 124.183 317.707 126.563 321.187C127.009 321.845 127.455 322.503 127.915 323.181C137.009 336.42 147.747 348.794 161 358C162.261 358.951 162.261 358.951 163.547 359.922C177.72 370.572 201.64 384.113 220 383C220 383.66 220 384.32 220 385C225.28 385 230.56 385 236 385C236 385.66 236 386.32 236 387C247.761 386.623 259.399 386.227 271.039 384.402C273.74 384.035 276.279 383.924 279 384C279 383.34 279 382.68 279 382C279.908 381.856 280.815 381.711 281.75 381.562C284.854 381.081 284.854 381.081 287.25 380.375C289 380 289 380 291 381C291.33 380.34 291.66 379.68 292 379C293.969 378.289 293.969 378.289 296.5 377.625C310.226 373.689 323.882 365.962 335 357C335.33 356.34 335.66 355.68 336 355C336.784 354.546 337.568 354.092 338.375 353.625C341.079 352.174 341.079 352.174 342.625 349.812C343.079 349.214 343.533 348.616 344 348C344.99 348 345.98 348 347 348C347 347.34 347 346.68 347 346C347.928 345.257 348.856 344.515 349.813 343.75C369.55 327.322 380.643 300.826 388 277C387.34 276.67 386.68 276.34 386 276C386.99 276 387.98 276 389 276C392.491 256.767 393.821 232.106 389 213C388.34 212.67 387.68 212.34 387 212C386.762 210.093 386.53 208.184 386.335 206.272C385.783 202.527 384.436 199.137 383.063 195.625C382.665 194.56 382.665 194.56 382.26 193.473C380.698 189.388 380.698 189.388 378 186C378 185.34 378 184.68 378 184C377.34 183.34 376.68 182.68 376 182C376 181.01 376 180.02 376 179C370.163 166.903 362.134 155.329 352.18 146.269C351 145 351 145 351 143C350.442 142.761 349.884 142.523 349.309 142.277C346.484 140.715 344.415 138.77 342.063 136.562C338.291 133.024 334.624 130.312 330 128C329.607 127.571 329.214 127.141 328.809 126.699C316.522 115.155 296.19 109.076 280.25 105C279.441 104.792 278.632 104.584 277.798 104.37C272.747 103.169 268.189 102.81 263 103C263 102.67 263 102.34 263 102C247.502 100.494 230.943 100.019 216 105C214.436 105.199 214.436 105.199 212.84 105.402C193.811 108.364 173.58 118.611 159 131C158.505 131.99 158.505 131.99 158 133C156.333 134 154.667 135 153 136C146.229 141.533 139.7 147.558 135 155C135 155.66 135 156.32 135 157C134.01 157.33 133.02 157.66 132 158C130.315 160.325 128.798 162.615 127.313 165.062C126.873 165.778 126.434 166.494 125.982 167.232C118.607 179.439 111.913 192.349 108.434 206.266C108 208 108 208 107 210C107.66 210.33 108.32 210.66 109 211C108.34 211.33 107.68 211.66 107 212C106.495 213.879 106.07 215.78 105.688 217.687C104.39 223.173 103.18 226.218 99 230C95.0454 232.289 91.5128 232.467 87 232C83.0381 230.565 80.5682 228.77 78.0625 225.375C75.2975 216.592 77.6443 207.981 79.875 199.312C80.1445 198.224 80.4139 197.135 80.6914 196.014C81.4416 193.004 82.2163 190.001 83 187C83.1886 186.244 83.3771 185.488 83.5713 184.708C83.9848 183.121 84.482 181.556 85 180C85.99 179.505 85.99 179.505 87 179C87.1341 178.313 87.2682 177.626 87.4063 176.918C88.1897 173.068 89.7985 169.835 91.5 166.312C91.9815 165.298 91.9815 165.298 92.4727 164.264C94.5756 159.842 96.6692 156.009 99.5625 152.062C102.408 148.175 105.242 144.28 108.063 140.375C109.373 138.582 110.685 136.79 112 135C112.587 134.193 113.173 133.386 113.777 132.555C117.092 128.121 120.529 124.412 124.781 120.871C127.352 118.703 129.791 116.418 132.25 114.125C137.879 108.995 143.812 104.431 150 99.9999C150.724 99.4675 151.449 98.9351 152.195 98.3866C158.753 93.7617 165.973 90.3686 173.181 86.891C174.801 86.0973 176.4 85.2604 177.996 84.4179C181.547 82.742 185.117 81.6095 188.875 80.4999C192.94 79.2859 196.925 78.0472 200.856 76.4452C205.606 74.6344 210.412 73.9987 215.438 73.3749C216.406 73.2508 217.375 73.1268 218.373 72.9989C265.223 67.2088 306.447 77.701 347 101Z" fill="#090909"/>
<path d="M271.922 201.645C274.409 203.314 276.708 205.073 279 207C279.633 207.51 280.266 208.021 280.918 208.547C289.452 216.158 294.591 227.672 295.371 239.008C295.809 253.69 291.989 265.891 282 277C272.456 286.229 260.278 290.809 247.125 291.312C234.79 290.984 223.231 286.529 214.5 277.75C213.892 277.085 213.283 276.42 212.656 275.734C210.918 273.787 210.918 273.787 208 272C207.211 270.06 206.432 268.114 205.754 266.133C204.957 263.765 204.957 263.765 203.438 260.688C198.198 247.247 199.507 233.198 205 220C206.705 217.005 208.669 214.53 211 212C211.61 211.312 212.219 210.623 212.848 209.914C228.498 193.175 252.191 190.539 271.922 201.645Z" fill="#060606"/>
<path d="M60 134C60.33 134.66 60.66 135.32 61 136C59.9211 138.21 58.7848 140.308 57.5625 142.438C54.2349 148.444 51.3379 154.541 48.6875 160.875C48.3627 161.646 48.038 162.418 47.7034 163.213C40.8621 179.774 36.604 197.3 34 215C33.7177 216.916 33.7177 216.916 33.4297 218.871C32.7026 225.72 32.8515 232.631 32.8696 239.51C32.875 241.928 32.8697 244.346 32.8633 246.764C32.8595 254.564 32.9367 262.257 34 270C34.1444 271.149 34.2887 272.297 34.4375 273.48C38.2592 297.393 45.1821 320.785 57 342C57.3822 342.699 57.7644 343.397 58.1582 344.117C64.1045 355.757 64.1046 355.757 72 366C72.8719 367.301 73.7233 368.615 74.5625 369.938C83.9363 384.054 96.0892 396.104 109 407C109.617 407.557 110.235 408.114 110.871 408.688C119.559 417.451 119.559 417.451 130 422C130.81 422.857 130.81 422.857 131.637 423.73C134.708 426.68 138.043 428.381 141.812 430.312C142.559 430.701 143.305 431.089 144.073 431.489C157.703 438.526 157.703 438.526 172 444C173.298 444.453 174.595 444.909 175.891 445.367C186.462 449.053 196.981 452.003 208 454C208.819 454.151 209.639 454.302 210.483 454.458C223.38 456.731 236.125 457.267 249.187 457.25C249.944 457.249 250.701 457.249 251.481 457.248C260.328 457.407 260.328 457.407 269 456C270.44 455.86 271.883 455.756 273.328 455.684C274.127 455.642 274.927 455.6 275.75 455.557C276.575 455.517 277.4 455.478 278.25 455.438C279.09 455.394 279.931 455.351 280.797 455.307C282.864 455.201 284.932 455.1 287 455C287 454.34 287 453.68 287 453C288.301 452.879 289.601 452.758 290.941 452.633C295.731 452.096 300.285 451.116 304.938 449.875C305.744 449.663 306.551 449.45 307.383 449.232C314.989 447.149 322.246 444.345 329.535 441.355C333 440 333 440 335 440C335 439.34 335 438.68 335 438C335.687 437.908 336.374 437.817 337.082 437.723C340.678 436.832 343.464 435.257 346.688 433.438C352.795 430 352.795 430 355 430C355.33 429.34 355.66 428.68 356 428C357.824 426.867 359.685 425.793 361.562 424.75C366.156 422.138 370.369 419.385 374.477 416.066C376 415 376 415 378 415C378 414.34 378 413.68 378 413C378.66 413 379.32 413 380 413C380 412.34 380 411.68 380 411C380.971 410.51 381.941 410.02 382.941 409.516C387.93 406.665 391.836 402.728 395.938 398.75C396.717 398.005 397.496 397.26 398.299 396.492C400.205 394.668 402.105 392.837 404 391C404 394 404 394 402.531 395.797C400.366 397.879 398.199 399.954 396 402C395.423 402.547 394.845 403.093 394.25 403.656C382.064 414.755 368.252 423.814 354 432C353.259 432.431 352.519 432.861 351.756 433.305C322.62 450.07 288.536 458.791 255 460C254.333 460.027 253.666 460.054 252.979 460.083C194.164 462.209 139.961 439.014 97 400C79.2717 383.297 65.3018 363.494 54 342C53.5905 341.234 53.1811 340.469 52.7593 339.68C27.2235 291.365 23.4872 232.992 38.7187 180.945C43.7324 164.747 50.1134 147.906 60 134Z" fill="#D0D0D0"/>
<path d="M218 -2.69115e-05C282.955 -0.910808 282.955 -0.910808 308.016 7.07419C312.112 8.34483 316.242 9.48215 320.375 10.625C321.161 10.8432 321.947 11.0615 322.756 11.2864C326.163 12.2294 329.568 13.1533 333 14C333 14.66 333 15.32 333 16C333.879 16.1191 334.758 16.2383 335.664 16.3611C338.883 16.9775 341.405 17.8725 344.379 19.2226C345.876 19.9016 345.876 19.9016 347.404 20.5942C348.446 21.0787 349.488 21.5633 350.562 22.0625C352.166 22.8009 352.166 22.8009 353.802 23.5542C360.747 26.8052 367.314 30.3113 373.707 34.539C376.015 36.1399 376.015 36.1399 379 37C379 37.66 379 38.32 379 39C379.701 39.2475 380.402 39.495 381.125 39.75C384.393 41.1707 387.053 42.9931 390 45C390.557 45.3751 391.113 45.7502 391.687 46.1367C393.4 47.2927 395.107 48.4579 396.812 49.625C397.689 50.2167 397.689 50.2167 398.584 50.8203C402.886 53.7711 402.886 53.7711 404 56C404.99 56.33 405.98 56.66 407 57C407.835 58.0518 407.835 58.0518 408.688 59.125C410.561 61.4548 412.187 63.0992 414.438 65C424.273 73.441 433.032 82.7907 441 93C442.112 94.3303 442.112 94.3303 443.246 95.6875C445 98 445 98 445 100C445.66 100 446.32 100 447 100C448.11 101.43 448.11 101.43 449.32 103.445C449.993 104.554 449.993 104.554 450.68 105.686C451.157 106.491 451.634 107.296 452.125 108.125C452.62 108.952 453.115 109.78 453.625 110.633C454.627 112.313 455.627 113.996 456.622 115.68C457.769 117.61 458.935 119.525 460.117 121.434C464.683 129.021 468.344 136.914 471.938 145C472.423 146.087 472.908 147.175 473.408 148.295C473.86 149.332 474.312 150.369 474.777 151.437C475.182 152.364 475.587 153.291 476.004 154.246C477 157 477 157 477.514 160.285C477.674 161.181 477.835 162.077 478 163C478.66 163.33 479.32 163.66 480 164C480.781 166.477 480.781 166.477 481.5 169.625C482.252 172.872 483.022 176.076 483.965 179.273C485.226 183.813 486.156 188.379 487.062 193C487.236 193.864 487.409 194.727 487.588 195.617C488.968 202.575 490.143 209.317 490.062 216.437C490.053 217.488 490.044 218.539 490.035 219.621C490.018 220.799 490.018 220.799 490 222C489.67 222 489.34 222 489 222C488.745 220.074 488.745 220.074 488.484 218.109C481.715 168.106 463.918 121.958 430 84C429.515 83.4536 429.031 82.9072 428.531 82.3442C385.761 34.325 325.332 7.698 261.812 2.31247C213.422 -0.439577 166.046 10.5671 124.02 34.75C121.086 36.4322 118.2 37.8714 115 39C117.89 35.8634 120.723 33.8324 124.465 31.8008C125.512 31.2316 126.56 30.6625 127.639 30.0761C128.727 29.4941 129.816 28.9121 130.938 28.3125C132.022 27.7189 133.107 27.1252 134.225 26.5136C143.072 21.7448 143.072 21.7448 148 21C148 20.34 148 19.68 148 19C178.85 8.51391 178.85 8.51391 191.054 5.49118C192.775 5.05665 194.471 4.52351 196.16 3.97654C200.635 2.83839 204.841 2.55275 209.438 2.37497C210.264 2.3363 211.091 2.29763 211.943 2.25779C213.962 2.16444 215.981 2.08116 218 1.99997C218 1.33997 218 0.679973 218 -2.69115e-05Z" fill="#D7D7D7"/>
<path d="M347 101C347 101.66 347 102.32 347 103C347.683 103.213 348.366 103.425 349.07 103.645C352.912 105.422 355.719 107.902 358.875 110.688C359.806 111.498 359.806 111.498 360.756 112.325C365.011 116.055 369.094 119.904 373 124C374.207 125.176 374.207 125.176 375.438 126.375C386.571 137.78 394.9 150.237 402.045 164.453C403.742 167.803 405.347 170.381 408 173C408.59 174.875 408.59 174.875 408.938 177C409.858 181.789 411.444 186.172 413.195 190.715C414 193 414 193 414 195C414.66 195.33 415.32 195.66 416 196C416.344 197.82 416.344 197.82 416.5 200.125C416.763 203.113 417.154 205.529 418 208.438C419.267 212.951 419.619 217.341 420 222C420.093 222.902 420.186 223.805 420.281 224.734C420.903 230.845 421.12 236.86 421 243C421.66 243.33 422.32 243.66 423 244C422.34 244 421.68 244 421 244C421.035 244.611 421.07 245.222 421.105 245.852C421.597 262.47 419.527 282.945 412 298C412.66 298.33 413.32 298.66 414 299C413.01 299 412.02 299 411 299C411 300.98 411 302.96 411 305C410.34 305 409.68 305 409 305C408.67 306.134 408.34 307.269 408 308.438C404.363 319.313 398.817 335.455 389 342C390.466 338.007 392.386 334.525 394.562 330.875C417.745 290.856 424.732 244.061 413.05 199.123C401.373 156.602 374.381 120.299 336.285 97.8282C308.436 82.3306 278.551 73.5591 246.5 73.7501C245.202 73.7423 243.904 73.7346 242.566 73.7266C233.879 73.744 225.556 74.5144 217 76.0001C216.091 76.1557 215.182 76.3114 214.246 76.4717C192.041 80.5337 171.669 89.0119 152.688 101.149C151 102 151 102 148 102C151.491 98.9595 155.096 96.7338 159.148 94.5587C161.388 93.3348 163.59 92.0774 165.789 90.7852C178.434 83.4052 178.434 83.4052 185.629 81.6094C189.303 80.6652 192.808 79.2887 196.359 77.9649C197.231 77.6465 198.102 77.3281 199 77.0001C199.886 76.6623 200.771 76.3246 201.684 75.9766C206.177 74.6534 210.674 74.0446 215.312 73.4376C216.29 73.309 217.268 73.1804 218.275 73.0479C265.116 67.0977 306.461 77.7095 347 101Z" fill="#DADADA"/>
<path d="M100.312 260C105.376 264.775 106.096 272.244 107.48 278.762C109.127 285.856 111.978 292.517 114.816 299.203C115.598 301.049 116.336 302.915 117.027 304.797C117.792 307.161 117.792 307.161 120 308C120.277 308.862 120.554 309.725 120.84 310.613C122.214 314.625 124.183 317.707 126.562 321.187C127.009 321.845 127.455 322.503 127.915 323.181C137.009 336.42 147.747 348.794 161 358C162.261 358.951 162.261 358.951 163.547 359.922C177.72 370.572 201.64 384.113 220 383C220 383.66 220 384.32 220 385C225.28 385 230.56 385 236 385C236 385.66 236 386.32 236 387C247.761 386.623 259.399 386.227 271.039 384.402C273.74 384.035 276.279 383.924 279 384C279 383.34 279 382.68 279 382C280.361 381.783 280.361 381.783 281.75 381.562C284.854 381.081 284.854 381.081 287.25 380.375C289 380 289 380 291 381C291.33 380.34 291.66 379.68 292 379C293.969 378.289 293.969 378.289 296.5 377.625C300.881 376.394 304.887 374.821 308.992 372.867C310.979 372.009 312.889 371.464 315 371C312.248 374.452 308.413 375.769 304.438 377.375C303.317 377.831 303.317 377.831 302.173 378.295C296.758 380.436 291.293 382.242 285.688 383.812C284.996 384.007 284.305 384.201 283.594 384.402C272.461 387.371 261.559 388.349 250.075 388.315C247.833 388.312 245.592 388.336 243.35 388.361C210.007 388.508 175.307 375.875 150.809 352.949C149.709 351.84 148.623 350.717 147.562 349.57C145.93 347.863 145.93 347.863 143.574 346.109C139.012 342.371 135.591 337.647 132 333C131.394 332.222 131.394 332.222 130.775 331.428C116.512 312.937 107.588 292.05 102.605 269.277C101.584 265.435 100.729 263.485 97.375 261.25C93.4356 259.791 90.1013 259.016 86 260C83.0724 261.723 80.5298 263.739 78 266C79.9462 261.741 82.4663 259.136 86.8125 257.187C92.1611 256.729 95.7654 257.254 100.312 260Z" fill="#DBDBDB"/>
<path d="M404 391C404 394 404 394 402.531 395.797C400.366 397.879 398.199 399.954 396 402C395.423 402.547 394.845 403.093 394.25 403.656C382.064 414.755 368.252 423.814 354 432C353.259 432.431 352.519 432.861 351.756 433.305C332.245 444.532 311.035 451.647 289 456C287.838 456.243 287.838 456.243 286.652 456.492C270.562 459.784 254.337 459.308 238 459C238 458.67 238 458.34 238 458C239.195 457.962 239.195 457.962 240.415 457.924C244.027 457.808 247.638 457.685 251.25 457.562C252.504 457.523 253.759 457.484 255.051 457.443C256.256 457.401 257.461 457.36 258.703 457.316C259.813 457.28 260.924 457.243 262.067 457.205C264.552 457.031 266.613 456.636 269 456C270.44 455.86 271.883 455.756 273.328 455.684C274.127 455.642 274.927 455.6 275.75 455.557C276.575 455.517 277.4 455.478 278.25 455.438C279.09 455.394 279.931 455.351 280.797 455.307C282.864 455.201 284.932 455.1 287 455C287 454.34 287 453.68 287 453C288.301 452.879 289.601 452.758 290.941 452.633C295.731 452.096 300.285 451.116 304.938 449.875C305.744 449.663 306.551 449.45 307.383 449.232C314.989 447.149 322.246 444.345 329.535 441.355C333 440 333 440 335 440C335 439.34 335 438.68 335 438C335.687 437.908 336.374 437.817 337.082 437.723C340.678 436.832 343.464 435.257 346.688 433.438C352.795 430 352.795 430 355 430C355.495 429.01 355.495 429.01 356 428C357.824 426.867 359.685 425.793 361.562 424.75C366.156 422.138 370.369 419.385 374.477 416.066C376 415 376 415 378 415C378 414.34 378 413.68 378 413C378.66 413 379.32 413 380 413C380 412.34 380 411.68 380 411C380.971 410.51 381.941 410.02 382.941 409.516C387.93 406.665 391.836 402.728 395.938 398.75C397.106 397.632 397.106 397.632 398.299 396.492C400.205 394.668 402.105 392.837 404 391Z" fill="#DDDDDD"/>
<path d="M218 -0.000223622C241.881 -0.335077 265.299 -0.270865 289 2.99978C289 3.32978 289 3.65978 289 3.99978C281.386 4.28893 274.006 3.76248 266.438 2.99978C216.816 -1.80837 167.115 9.95206 124.02 34.7498C121.086 36.432 118.2 37.8712 115 38.9998C117.89 35.8632 120.723 33.8322 124.465 31.8006C125.512 31.2314 126.56 30.6623 127.639 30.0759C128.727 29.4939 129.816 28.9119 130.938 28.3123C132.022 27.7187 133.107 27.1251 134.225 26.5134C143.072 21.7446 143.072 21.7446 148 20.9998C148 20.3398 148 19.6798 148 18.9998C178.85 8.51371 178.85 8.51371 191.054 5.49099C192.775 5.05645 194.471 4.52331 196.16 3.97634C200.635 2.8382 204.841 2.55255 209.438 2.37478C210.264 2.3361 211.091 2.29743 211.943 2.25759C213.962 2.16425 215.981 2.08097 218 1.99978C218 1.33978 218 0.679776 218 -0.000223622Z" fill="#E5E5E5"/>
<path d="M271.922 201.645C274.409 203.314 276.708 205.073 279 207C279.633 207.511 280.266 208.021 280.918 208.547C289.452 216.158 294.591 227.672 295.371 239.008C295.657 248.821 294.462 257.13 290 266C289.01 266.495 289.01 266.495 288 267C288.205 266.408 288.41 265.817 288.621 265.207C288.891 264.417 289.16 263.627 289.438 262.813C289.704 262.035 289.971 261.258 290.246 260.457C293.556 249.669 294.051 234.831 289.379 224.445C281.98 211.325 272.578 203.182 258 199C257.368 198.809 256.737 198.619 256.086 198.422C244.388 196.056 232.158 198.48 222.125 204.813C214.612 210.266 214.612 210.266 210 218C209.34 218 208.68 218 208 218C210.816 209.627 218.107 203.891 225.797 199.992C241.434 192.95 256.828 193.149 271.922 201.645Z" fill="#D0D0D0"/>
<path d="M60 134C60.33 134.66 60.66 135.32 61 136C59.9211 138.21 58.7848 140.308 57.5625 142.438C54.2349 148.444 51.3379 154.541 48.6875 160.875C48.3627 161.646 48.038 162.418 47.7033 163.213C38.2279 186.151 32.7825 211.216 32.9023 236.035C32.9037 237.154 32.9052 238.274 32.9066 239.427C32.9122 242.972 32.9247 246.517 32.9375 250.062C32.9425 252.479 32.9471 254.895 32.9512 257.311C32.9621 263.207 32.9788 269.104 33 275C32.67 275 32.34 275 32 275C26.4984 227.843 31.6377 173.893 60 134Z" fill="#BDBDBD"/>
<path d="M417 212C419.108 216.217 420.148 218.887 420.316 223.664C420.358 224.786 420.4 225.907 420.443 227.062C420.483 228.238 420.522 229.414 420.562 230.625C420.606 231.808 420.649 232.992 420.693 234.211C420.8 237.141 420.902 240.07 421 243C421.66 243.33 422.32 243.66 423 244C422.34 244 421.68 244 421 244C421.052 244.917 421.052 244.917 421.105 245.852C421.597 262.47 419.527 282.945 412 298C412.66 298.33 413.32 298.66 414 299C413.01 299 412.02 299 411 299C411 300.98 411 302.96 411 305C410.34 305 409.68 305 409 305C408.67 306.134 408.34 307.269 408 308.438C404.363 319.313 398.817 335.455 389 342C390.466 338.007 392.386 334.525 394.562 330.875C407.987 307.7 418.214 281.234 418.133 254.09C418.134 253.36 418.135 252.63 418.136 251.878C418.136 250.341 418.135 248.804 418.13 247.267C418.125 244.968 418.13 242.668 418.137 240.369C418.141 230.87 417.766 221.469 417 212Z" fill="#C6C6C6"/>
<path d="M100.312 260C105.376 264.775 106.096 272.244 107.48 278.762C109.127 285.856 111.978 292.517 114.816 299.203C115.598 301.049 116.336 302.915 117.027 304.797C117.792 307.161 117.792 307.161 120 308C120.277 308.862 120.554 309.725 120.84 310.613C122.214 314.625 124.184 317.706 126.562 321.187C127.223 322.165 127.223 322.165 127.897 323.163C132.998 330.612 138.526 337.686 145 344C144.505 345.485 144.505 345.485 144 347C123.393 325.375 110.772 300.601 103.164 271.84C101.475 265.579 101.475 265.579 97 261C93.2315 259.744 89.8948 259.235 86 260C83.0631 261.71 80.5304 263.739 78 266C79.9462 261.741 82.4663 259.136 86.8125 257.187C92.1611 256.729 95.7654 257.254 100.312 260Z" fill="#CFCFCF"/>
<path d="M3 273C4.32 273.33 5.64 273.66 7 274C7.09499 274.597 7.18998 275.194 7.28784 275.81C12.767 309.82 22.783 341.397 41.2783 370.68C41.7769 371.478 42.2754 372.276 42.7891 373.098C43.2398 373.804 43.6904 374.511 44.1548 375.239C44.4337 375.82 44.7126 376.401 45 377C44.67 377.66 44.34 378.32 44 379C43.67 378.01 43.34 377.02 43 376C42.01 375.67 41.02 375.34 40 375C39.2682 373.361 38.6167 371.686 38 370C36.7415 367.597 35.4605 365.233 34.125 362.875C33.786 362.255 33.447 361.635 33.0977 360.996C31.1474 357.548 29.3979 355.088 26 353C26.99 352.505 26.99 352.505 28 352C27.0731 349.87 26.1332 347.746 25.1875 345.625C24.6654 344.442 24.1434 343.258 23.6055 342.039C22.1959 338.786 22.1959 338.786 19 337C19.66 337 20.32 337 21 337C20.7681 336.37 20.5363 335.74 20.2974 335.092C19.2373 332.208 18.1811 329.323 17.125 326.438C16.5778 324.952 16.5778 324.952 16.0195 323.436C12.9891 315.143 12.9891 315.143 11.8672 310.848C11.581 309.908 11.2948 308.968 11 308C10.34 307.67 9.68 307.34 9 307C9.33 306.01 9.66 305.02 10 304C9.78886 301.907 9.78886 301.907 9.25781 299.648C9.07863 298.796 8.89945 297.944 8.71484 297.066C8.42287 295.734 8.42287 295.734 8.125 294.375C6.72922 287.916 5.62753 281.582 5 275C4.34 275 3.68 275 3 275C3 274.34 3 273.68 3 273Z" fill="#959595"/>
<path d="M265 72.0002C265.495 72.9902 265.495 72.9902 266 74.0002C264.52 73.9844 264.52 73.9844 263.009 73.9684C259.278 73.9317 255.547 73.9091 251.815 73.8903C250.214 73.8804 248.612 73.8668 247.01 73.8493C236.81 73.7406 227.076 74.1796 217 76.0002C216.095 76.156 215.19 76.3118 214.257 76.4723C192.05 80.5127 171.665 89.0144 152.688 101.149C151 102 151 102 148 102C151.491 98.9596 155.096 96.7339 159.148 94.5588C161.388 93.3349 163.59 92.0775 165.789 90.7853C178.434 83.4053 178.434 83.4053 185.629 81.6095C189.303 80.6653 192.808 79.2888 196.359 77.965C197.231 77.6466 198.102 77.3282 199 77.0002C199.886 76.6624 200.771 76.3247 201.684 75.9767C206.177 74.6535 210.674 74.0447 215.312 73.4377C216.29 73.3091 217.268 73.1805 218.275 73.048C234.034 71.0462 249.148 70.9707 265 72.0002Z" fill="#E7E7E7"/>
<path d="M455 116C455.66 116 456.32 116 457 116C462.683 125.416 467.552 135.063 472 145.125C472.721 146.742 472.721 146.742 473.456 148.392C473.904 149.42 474.351 150.449 474.812 151.508C475.211 152.422 475.609 153.336 476.02 154.278C477 157 477 157 477.512 160.281C477.673 161.178 477.834 162.075 478 163C478.66 163.33 479.32 163.66 480 164C480.781 166.477 480.781 166.477 481.5 169.625C482.252 172.872 483.022 176.076 483.965 179.273C485.226 183.813 486.156 188.379 487.062 193C487.236 193.864 487.409 194.727 487.588 195.617C488.968 202.575 490.143 209.317 490.062 216.438C490.053 217.488 490.044 218.539 490.035 219.621C490.024 220.406 490.012 221.191 490 222C489.67 222 489.34 222 489 222C488.83 220.716 488.66 219.432 488.484 218.109C483.913 184.342 475.158 152.423 457.742 122.845C455 118.183 455 118.183 455 116Z" fill="#C7C7C7"/>
<path d="M373 126C386.518 131.729 395.771 151.971 402.045 164.453C403.742 167.804 405.347 170.381 408 173C408.59 174.875 408.59 174.875 408.938 177C409.858 181.789 411.444 186.172 413.195 190.715C414 193 414 193 414 195C414.99 195.495 414.99 195.495 416 196C416.344 197.82 416.344 197.82 416.5 200.125C416.869 204.322 417.721 207.992 419 212C418.01 212 417.02 212 416 212C415.732 210.8 415.464 209.6 415.188 208.363C408.262 178.477 395.673 152.564 375.273 129.633C373 127 373 127 373 126Z" fill="#CDCDCD"/>
<path d="M489 263C489.33 263 489.66 263 490 263C490.701 275.327 488.726 286.827 486.367 298.9C485.943 300.973 485.943 300.973 486 303C485.34 303 484.68 303 484 303C483.898 304.127 483.796 305.253 483.691 306.414C483.073 311.313 481.608 315.744 479.938 320.375C479.47 321.683 479.47 321.683 478.993 323.018C474.274 335.985 468.469 348.317 462.125 360.562C461.648 361.486 461.172 362.41 460.681 363.361C460.232 364.213 459.783 365.064 459.32 365.941C458.921 366.701 458.521 367.461 458.11 368.244C457 370 457 370 455 371C456.541 365.676 458.978 361.141 461.625 356.312C477.141 327.299 486.435 295.809 489 263Z" fill="#B8B8B8"/>
<path d="M284 4.00012C292.827 3.83427 300.496 3.97785 308.792 7.19128C312.546 8.56655 316.393 9.58376 320.25 10.6251C321.039 10.8417 321.828 11.0582 322.641 11.2814C326.086 12.2241 329.533 13.1425 333 14.0001C333 14.6601 333 15.3201 333 16.0001C333.87 16.1135 334.739 16.2268 335.635 16.3436C339.042 17.0083 341.699 18.0368 344.836 19.504C345.899 19.9971 346.963 20.4902 348.059 20.9982C349.153 21.5144 350.247 22.0307 351.375 22.5626C352.493 23.0828 353.61 23.6029 354.762 24.1388C357.511 25.4194 360.257 26.7067 363 28.0001C360.607 28.8491 359.355 29.1152 356.907 28.3226C356.159 27.9494 355.411 27.5761 354.641 27.1915C353.785 26.778 352.929 26.3644 352.047 25.9383C351.124 25.4844 350.201 25.0304 349.25 24.5626C328.677 14.8594 306.61 7.91458 284 5.00012C284 4.67012 284 4.34012 284 4.00012Z" fill="#D7D7D7"/>
<path d="M374 174C374.66 174 375.32 174 376 174C380.268 182.557 384.268 191.111 387.312 200.188C387.542 200.862 387.772 201.536 388.008 202.23C392.149 215.029 393.421 227.043 393.188 240.375C393.172 241.901 393.159 243.427 393.146 244.953C393.114 248.636 393.062 252.318 393 256C392.67 256 392.34 256 392 256C391.98 255.266 391.96 254.532 391.94 253.775C391.769 233.263 391.769 233.263 389 213C388.34 212.67 387.68 212.34 387 212C386.762 210.093 386.53 208.185 386.335 206.272C385.783 202.527 384.436 199.137 383.062 195.625C382.798 194.915 382.533 194.204 382.26 193.473C380.698 189.388 380.698 189.388 378 186C378 185.34 378 184.68 378 184C377.34 183.34 376.68 182.68 376 182C376 181.01 376 180.02 376 179C375.374 177.318 374.712 175.648 374 174Z" fill="#A2A2A2"/>
<path d="M181 449C186.698 449.52 192.133 450.424 197.688 451.812C216.346 456.195 235.848 458.438 255 459C255 459.33 255 459.66 255 460C229.779 460.82 205.178 457.1 181 450C181 449.67 181 449.34 181 449Z" fill="#CDCDCD"/>
<path d="M4 217C4.33 217 4.66 217 5 217C5 234.82 5 252.64 5 271C4.34 270.67 3.68 270.34 3 270C2.375 266.938 2.375 266.938 2 264C2.66 264 3.32 264 4 264C3.83629 263.203 3.67258 262.407 3.50391 261.586C2.89208 257.232 2.892 253.014 2.9375 248.625C2.94201 247.794 2.94652 246.962 2.95117 246.105C2.96287 244.07 2.9808 242.035 3 240C2.34 240 1.68 240 1 240C1 239.01 1 238.02 1 237C1.66 237 2.32 237 3 237C3.33 233.04 3.66 229.08 4 225C3.34 224.67 2.68 224.34 2 224C2.66 224 3.32 224 4 224C4 223.01 4 222.02 4 221C3.34 220.67 2.68 220.34 2 220C2.66 220 3.32 220 4 220C4 219.01 4 218.02 4 217Z" fill="#ABABAB"/>
<path d="M313 371C313.66 371.33 314.32 371.66 315 372C297.963 381.534 278.638 387.684 259 387C259 386.67 259 386.34 259 386C261.395 385.663 263.791 385.33 266.188 385C267.198 384.857 267.198 384.857 268.229 384.711C271.847 384.217 275.348 383.887 279 384C279 383.34 279 382.68 279 382C279.908 381.856 280.815 381.711 281.75 381.562C284.854 381.081 284.854 381.081 287.25 380.375C289 380 289 380 291 381C291.33 380.34 291.66 379.68 292 379C293.969 378.289 293.969 378.289 296.5 377.625C302.293 375.994 307.626 373.687 313 371Z" fill="#E8E8E8"/>
<path d="M122 170C122.33 170.66 122.66 171.32 123 172C121.88 174.434 120.701 176.766 119.438 179.125C116.447 184.885 113.81 190.66 111.562 196.75C111.316 197.417 111.07 198.083 110.816 198.77C109.714 201.82 108.758 204.849 108 208C107.67 208.66 107.34 209.32 107 210C107.66 210.33 108.32 210.66 109 211C108.01 211.495 108.01 211.495 107 212C106.141 215.013 105.525 218.052 104.879 221.117C104.002 223.993 103.312 225.158 101 227C105.377 207.24 110.373 186.912 122 170Z" fill="#C1C1C2"/>
<path d="M21 335C21.66 335 22.32 335 23 335C23.4731 336.114 23.9462 337.227 24.4336 338.375C29.7694 350.757 35.7775 362.559 43.125 373.875C43.7437 374.906 44.3625 375.938 45 377C44.67 377.66 44.34 378.32 44 379C43.67 378.01 43.34 377.02 43 376C41.515 375.505 41.515 375.505 40 375C39.2682 373.361 38.6167 371.686 38 370C36.7415 367.597 35.4605 365.233 34.125 362.875C33.786 362.255 33.447 361.635 33.0977 360.996C31.1474 357.548 29.3979 355.088 26 353C26.66 352.67 27.32 352.34 28 352C27.0731 349.87 26.1332 347.746 25.1875 345.625C24.6654 344.442 24.1434 343.258 23.6055 342.039C22.1959 338.786 22.1959 338.786 19 337C19.66 337 20.32 337 21 337C21 336.34 21 335.68 21 335Z" fill="#A5A5A5"/>
<path d="M449 319C450.199 322.428 449.844 324.114 448.34 327.379C447.961 328.213 447.582 329.048 447.191 329.907C446.777 330.783 446.364 331.66 445.938 332.562C445.526 333.455 445.114 334.348 444.69 335.269C441.713 341.659 438.561 347.912 435 354C434.34 354 433.68 354 433 354C434.468 349.107 436.33 344.37 439 340C439.66 339.67 440.32 339.34 441 339C441.709 337.015 442.367 335.011 443 333C444.021 330.53 445.056 328.074 446.125 325.625C446.402 324.984 446.679 324.344 446.965 323.684C447.641 322.121 448.32 320.561 449 319Z" fill="#A6A6A6"/>
<path d="M85 179C85.66 179 86.32 179 87 179C87.25 184.625 87.25 184.625 85 188C84.4482 189.883 83.966 191.787 83.5273 193.699C83.2676 194.827 83.0079 195.954 82.7402 197.115C82.4753 198.294 82.2104 199.473 81.9375 200.688C81.6687 201.847 81.4 203.007 81.123 204.201C79.7722 210.127 78.6041 215.951 78 222C77.67 222 77.34 222 77 222C76.5371 214.024 77.8929 207.015 79.875 199.312C80.1444 198.224 80.4138 197.135 80.6914 196.014C81.7946 191.588 82.9285 187.175 84.1953 182.793C85.0461 180.324 85.0461 180.324 85 179Z" fill="#9C9C9C"/>
<path d="M341 100C343.97 100.495 343.97 100.495 347 101C347 101.66 347 102.32 347 103C348.025 103.319 348.025 103.319 349.07 103.645C352.912 105.422 355.719 107.902 358.875 110.688C359.493 111.226 360.112 111.764 360.749 112.318C365.009 116.052 369.083 119.905 373 124C373.66 124.66 374.32 125.32 375 126C371.519 125.426 370.126 124.365 367.812 121.75C361.842 115.508 354.772 110.581 347.877 105.42C345.548 103.658 343.266 101.842 341 100Z" fill="#D5D5D5"/>
<path d="M326 13C328.31 13.33 330.62 13.66 333 14C333 14.66 333 15.32 333 16C334.304 16.17 334.304 16.17 335.635 16.3435C339.042 17.0082 341.699 18.0367 344.836 19.5039C345.899 19.997 346.963 20.49 348.059 20.998C349.153 21.5143 350.247 22.0306 351.375 22.5625C352.493 23.0826 353.61 23.6028 354.762 24.1387C357.511 25.4193 360.257 26.7066 363 28C360.495 28.9168 359.275 29.0886 356.701 28.259C355.87 27.8603 355.039 27.4616 354.184 27.0508C353.254 26.6144 352.323 26.1781 351.365 25.7285C350.399 25.2612 349.433 24.7939 348.438 24.3125C341.071 20.7985 333.724 17.6523 326 15C326 14.34 326 13.68 326 13Z" fill="#E0E0E0"/>
<path d="M287 453C287.99 453.33 288.98 453.66 290 454C289.67 454.66 289.34 455.32 289 456C286.269 456.687 283.651 457.2 280.875 457.625C280.02 457.757 279.165 457.889 278.284 458.025C264.975 459.815 251.397 459.252 238 459C238 458.67 238 458.34 238 458C239.195 457.962 239.195 457.962 240.415 457.924C244.027 457.808 247.638 457.685 251.25 457.562C252.504 457.523 253.759 457.484 255.051 457.443C256.256 457.401 257.461 457.36 258.703 457.316C259.813 457.28 260.924 457.243 262.067 457.205C264.552 457.031 266.613 456.636 269 456C270.44 455.86 271.883 455.756 273.328 455.684C274.127 455.642 274.927 455.6 275.75 455.557C276.575 455.517 277.4 455.478 278.25 455.438C279.09 455.394 279.931 455.351 280.797 455.307C282.864 455.201 284.932 455.1 287 455C287 454.34 287 453.68 287 453Z" fill="#EBEBEB"/>
<path d="M344 348C344.99 348.33 345.98 348.66 347 349C339.171 357.574 327.958 366.776 317 371C316.34 370.67 315.68 370.34 315 370C316.645 369.004 316.645 369.004 318.324 367.988C319.779 367.097 321.233 366.205 322.688 365.312C323.769 364.66 323.769 364.66 324.873 363.994C329.128 361.371 332.54 358.655 336 355C336.866 354.484 337.733 353.969 338.625 353.438C341.145 351.912 342.399 350.443 344 348Z" fill="#E4E4E4"/>
<path d="M266 73C270.669 73.3082 275.335 73.6419 280 74C280.79 74.0606 281.58 74.1212 282.395 74.1836C288.704 74.8133 294.717 76.4777 300 80C292.527 79.3105 285.285 77.951 277.938 76.4375C276.786 76.2035 275.634 75.9696 274.447 75.7285C271.631 75.1559 268.815 74.5796 266 74C266 73.67 266 73.34 266 73Z" fill="#E0E0E0"/>
<path d="M98 155C98.668 156.711 98.668 156.711 99 159C97.9258 161.227 97.9258 161.227 96.3125 163.625C93.1704 168.547 90.9818 173.521 89 179C88.34 179 87.68 179 87 179C87.6504 174.33 89.4722 170.511 91.5 166.312C91.9815 165.298 91.9815 165.298 92.4727 164.264C95.8616 157.138 95.8616 157.138 98 155Z" fill="#9E9E9E"/>
<path d="M417 212C419.435 216.871 420.136 220.164 420.098 225.633C420.096 226.385 420.095 227.136 420.093 227.911C420.088 230.316 420.075 232.72 420.062 235.125C420.057 236.754 420.053 238.383 420.049 240.012C420.038 244.008 420.021 248.004 420 252C419.67 252 419.34 252 419 252C418.975 251.321 418.95 250.642 418.924 249.943C418.451 237.282 417.966 224.634 417 212Z" fill="#A5A5A5"/>
<path d="M437 141C437.66 141 438.32 141 439 141C440.658 144.369 442.299 147.746 443.938 151.125C444.64 152.552 444.64 152.552 445.357 154.008C447.601 158.656 449.587 162.774 450 168C449.01 168 448.02 168 447 168C446.876 166.546 446.876 166.546 446.75 165.062C446.087 160.428 444.477 155.98 442 152C441.01 151.67 440.02 151.34 439 151C439.33 150.01 439.66 149.02 440 148C439.078 145.635 438.083 143.296 437 141Z" fill="#A4A4A4"/>
<path d="M457 293C457.33 293 457.66 293 458 293C457.574 298.673 456.842 303.597 455 309C454.832 312.25 454.832 312.25 455 315C454.34 315 453.68 315 453 315C453 315.66 453 316.32 453 317C452.01 317.33 451.02 317.66 450 318C452.251 309.643 454.608 301.318 457 293Z" fill="#919191"/>
<path d="M113 39C113.66 39.33 114.32 39.66 115 40C114.299 40.5079 113.598 41.0158 112.875 41.5391C107.214 45.6462 101.578 49.7807 96 54C95.34 53.67 94.68 53.34 94 53C95.8845 50.9061 97.6738 49.5599 100.062 48C103.168 46.1546 103.168 46.1546 105 43C106.875 41.7969 106.875 41.7969 109 40.75C109.701 40.3942 110.402 40.0384 111.125 39.6719C111.744 39.4502 112.363 39.2284 113 39Z" fill="#DFDFDF"/>
<path d="M166 443C169.716 442.799 170.772 442.848 174 445C175.548 445.583 177.112 446.123 178.688 446.625C179.9 447.015 179.9 447.015 181.137 447.414C182.059 447.704 182.059 447.704 183 448C183 448.33 183 448.66 183 449C176.599 448.534 171.732 446.853 166 444C166 443.67 166 443.34 166 443Z" fill="#E2E2E2"/>
<path d="M100 402C104.101 403.404 106.981 405.371 110.312 408.125C111.196 408.849 112.079 409.574 112.988 410.32C113.652 410.875 114.316 411.429 115 412C114.67 412.99 114.34 413.98 114 415C112.228 413.397 110.458 411.792 108.688 410.188C108.188 409.736 107.688 409.284 107.174 408.818C104.726 406.598 102.305 404.368 100 402Z" fill="#CCCCCC"/>
<path d="M90 317C90.33 317.66 90.66 318.32 91 319C91.66 319 92.32 319 93 319C94.0077 320.766 95.0059 322.538 96 324.312C96.5569 325.299 97.1137 326.285 97.6875 327.301C99 330 99 330 99 333C98.01 333 97.02 333 96 333C95.8969 332.113 95.7938 331.226 95.6875 330.312C94.9853 326.929 93.8403 324.881 92 322C92 321.34 92 320.68 92 320C91.01 320 90.02 320 89 320C89.33 319.01 89.66 318.02 90 317Z" fill="#BDBDBD"/>
<path d="M484 297C484.66 297 485.32 297 486 297C486 298.98 486 300.96 486 303C485.34 303 484.68 303 484 303C483.876 304.258 483.752 305.516 483.625 306.812C483.301 310.103 482.934 311.099 481 314C481.515 308.147 482.454 302.67 484 297Z" fill="#CBCBCB"/>
<path d="M34 123C35.0169 125.655 35.1302 126.692 34.0039 129.359C33.5282 130.148 33.0526 130.937 32.5625 131.75C32.0894 132.549 31.6163 133.348 31.1289 134.172C30.7564 134.775 30.3838 135.378 30 136C29.34 136 28.68 136 28 136C29.4129 131.173 31.4297 127.284 34 123Z" fill="#9E9E9E"/>
<path d="M373 126C376.358 127.437 378.4 129.21 380.812 131.938C381.438 132.627 382.063 133.317 382.707 134.027C383.347 135.004 383.347 135.004 384 136C383.67 136.99 383.34 137.98 383 139C381.519 137.21 380.04 135.418 378.562 133.625C377.739 132.627 376.915 131.63 376.066 130.602C374 128 374 128 373 126Z" fill="#CBCBCB"/>
<path d="M429 82C429.99 82 430.98 82 432 82C434.078 84.082 434.078 84.082 436.25 86.8125C437.341 88.1525 437.341 88.1525 438.453 89.5195C438.964 90.3381 439.474 91.1566 440 92C439.67 92.99 439.34 93.98 439 95C437.707 93.3971 436.416 91.7926 435.125 90.1875C434.406 89.2942 433.686 88.4009 432.945 87.4805C431 85 431 85 429 82Z" fill="#CDCDCD"/>
<path d="M438 343C438.66 343 439.32 343 440 343C438.781 347.033 437.44 350.543 435 354C434.34 354 433.68 354 433 354C434.219 349.967 435.56 346.457 438 343Z" fill="#9F9F9F"/>
<path d="M396 50C402.875 53.75 402.875 53.75 404 56C404.99 56.33 405.98 56.66 407 57C406.67 57.66 406.34 58.32 406 59C398.046 54.6478 398.046 54.6478 396 52C396 51.34 396 50.68 396 50Z" fill="#DEDEDE"/>
<path d="M136 335C139 338 142 341 145 344C144.67 344.99 144.34 345.98 144 347C142.658 345.571 141.326 344.131 140 342.688C139.257 341.887 138.515 341.086 137.75 340.262C136 338 136 338 136 335Z" fill="#CBCBCB"/>
<path d="M207.82 74.8047C208.911 74.8279 210.001 74.8511 211.125 74.875C212.221 74.893 213.316 74.9111 214.445 74.9297C215.288 74.9529 216.131 74.9761 217 75C217 75.33 217 75.66 217 76C215.419 76.365 213.835 76.7166 212.25 77.0625C211.368 77.2597 210.487 77.457 209.578 77.6602C207.013 77.9983 205.429 77.8116 203 77C205 75 205 75 207.82 74.8047Z" fill="#DEDEDE"/>
<path d="M404 58C408.593 59.486 411.436 61.8501 415 65C414.67 65.99 414.34 66.98 414 68C410.667 64.6667 407.333 61.3333 404 58Z" fill="#CCCCCC"/>
<path d="M111 350C111.66 350 112.32 350 113 350C113.474 350.639 113.949 351.279 114.438 351.938C115.909 354.284 115.909 354.284 119 355C119.33 356.65 119.66 358.3 120 360C118.868 359.092 117.745 358.173 116.625 357.25C115.999 356.74 115.372 356.229 114.727 355.703C112.917 353.918 111.999 352.321 111 350Z" fill="#7A797A"/>
<path d="M178 84C178.66 84.66 179.32 85.32 180 86C178.402 86.8663 176.797 87.7177 175.188 88.5625C174.294 89.0382 173.401 89.5138 172.48 90.0039C170 91 170 91 167 90C170.63 88.02 174.26 86.04 178 84Z" fill="#ECECEC"/>
<path d="M432 354C432.688 355.75 432.688 355.75 433 358C431.688 360.25 431.688 360.25 430 362C429.34 362 428.68 362 428 362C429.125 359.028 430.223 356.666 432 354Z" fill="#9D9D9D"/>
<path d="M85 179C85.66 179 86.32 179 87 179C87.3663 182.938 87.3023 184.565 85 187.875C84.34 188.576 83.68 189.277 83 190C83.5995 186.317 84.2476 182.655 85 179Z" fill="#B1B1B1"/>
<path d="M69 410C73.2063 411.502 74.739 414.286 77 418C75.125 417.75 75.125 417.75 73 417C71.875 415.125 71.875 415.125 71 413C70.34 412.01 69.68 411.02 69 410Z" fill="#D3D3D3"/>
<path d="M327 126C327.99 126.33 328.98 126.66 330 127C329.67 127.66 329.34 128.32 329 129C328.34 128.67 327.68 128.34 327 128C327 127.34 327 126.68 327 126Z" fill="#FDFDFD"/>
<path d="M219 415C223 416 223 416 223 416L219 415Z" fill="#FEFEFE"/>
<path d="M275 105C279 106 279 106 279 106L275 105Z" fill="#FDFDFD"/>
<path d="M306 481C309 482 309 482 309 482L306 481Z" fill="#FDFDFD"/>
<path d="M288 451C291 452 291 452 291 452L288 451Z" fill="#FEFEFE"/>
<path d="M250 417C253 418 253 418 253 418L250 417Z" fill="#FDFDFD"/>
<path d="M323 400C323.66 400 324.32 400 325 400C324.67 400.66 324.34 401.32 324 402C323.67 401.34 323.34 400.68 323 400Z" fill="#FEFEFE"/>
<path d="M57 398C57.33 398.66 57.66 399.32 58 400C57.34 399.67 56.68 399.34 56 399C56.33 398.67 56.66 398.34 57 398Z" fill="#FEFEFE"/>
<path d="M25 351C25.99 351.495 25.99 351.495 27 352C26.01 352.495 26.01 352.495 25 353C25 352.34 25 351.68 25 351Z" fill="#FEFEFE"/>
<path d="M98 337C101 338 101 338 101 338L98 337Z" fill="#FDFDFD"/>
<path d="M89 233C92 234 92 234 92 234L89 233Z" fill="#FDFDFD"/>
<path d="M255 102C258 103 258 103 258 103L255 102Z" fill="#FEFEFE"/>
<path d="M348 56C348.66 56 349.32 56 350 56C349.67 56.66 349.34 57.32 349 58C348.67 57.34 348.34 56.68 348 56Z" fill="#FEFEFE"/>
<path d="M176 478C178 479 178 479 178 479L176 478Z" fill="#FEFEFE"/>
<path d="M153 470C155 471 155 471 155 471L153 470Z" fill="#FEFEFE"/>
<path d="M120 454C122 455 122 455 122 455L120 454Z" fill="#FEFEFE"/>
<path d="M80 423C82 424 82 424 82 424L80 423Z" fill="#FEFEFE"/>
<path d="M258 417C260 418 260 418 260 418L258 417Z" fill="#FEFEFE"/>
<path d="M213 414C215 415 215 415 215 415L213 414Z" fill="#FEFEFE"/>
<path d="M168 399C170 400 170 400 170 400L168 399Z" fill="#FEFEFE"/>
<path d="M265 288C267 289 267 289 267 289L265 288Z" fill="#FDFDFD"/>
<path d="M448 171C450 172 450 172 450 172L448 171Z" fill="#FEFEFE"/>
<path d="M441 154C443 155 443 155 443 155L441 154Z" fill="#FDFDFD"/>
<path d="M104 141C106 142 106 142 106 142L104 141Z" fill="#FEFEFE"/>
<path d="M340 138C342 139 342 139 342 139L340 138Z" fill="#FEFEFE"/>
<path d="M330 130C332 131 332 131 332 131L330 130Z" fill="#FEFEFE"/>
<path d="M265 103C267 104 267 104 267 104L265 103Z" fill="#FDFDFD"/>
<path d="M64 78C66 79 66 79 66 79L64 78Z" fill="#FEFEFE"/>
<path d="M71 70C73 71 73 71 73 71L71 70Z" fill="#FEFEFE"/>
<path d="M360 64C362 65 362 65 362 65L360 64Z" fill="#FEFEFE"/>
<path d="M130 64C132 65 132 65 132 65L130 64Z" fill="#FEFEFE"/>
<path d="M344 54C346 55 346 55 346 55L344 54Z" fill="#FEFEFE"/>
<path d="M87 52C89 53 89 53 89 53L87 52Z" fill="#FDFDFD"/>
<path d="M156 50C158 51 158 51 158 51L156 50Z" fill="#FEFEFE"/>
<path d="M304 38C306 39 306 39 306 39L304 38Z" fill="#FEFEFE"/>
<path d="M190 38C192 39 192 39 192 39L190 38Z" fill="#FDFDFD"/>
<path d="M299 37C301 38 301 38 301 38L299 37Z" fill="#FEFEFE"/>
<path d="M112 35C114 36 114 36 114 36L112 35Z" fill="#FEFEFE"/>
<path d="M279 33C281 34 281 34 281 34L279 33Z" fill="#FEFEFE"/>
<path d="M218 32C220 33 220 33 220 33L218 32Z" fill="#FEFEFE"/>
<path d="M167 11C169 12 169 12 169 12L167 11Z" fill="#FEFEFE"/>
</g>
<defs>
<clipPath id="clip0_103_150">
<rect width="490" height="490" fill="white"/>
</clipPath>
</defs>
</svg>
